<svg xmlns="http://www.w3.org/2000/svg" xmlns:xlink="http://www.w3.org/1999/xlink" width="500" zoomAndPan="magnify" viewBox="0 0 375 374.999991" height="500" preserveAspectRatio="xMidYMid meet" version="1.0"><defs><g/><clipPath id="d9b6c44346"><path d="M 45.921875 41.710938 L 337.671875 41.710938 L 337.671875 333.460938 L 45.921875 333.460938 Z M 45.921875 41.710938 " clip-rule="nonzero"/></clipPath><clipPath id="a0c41933c6"><path d="M 86 89 L 292 89 L 292 285 L 86 285 Z M 86 89 " clip-rule="nonzero"/></clipPath><clipPath id="345f306acb"><path d="M 73.816406 99.863281 L 282.929688 80.585938 L 300.898438 275.507812 L 91.785156 294.785156 Z M 73.816406 99.863281 " clip-rule="nonzero"/></clipPath><clipPath id="1ec3b46268"><path d="M 73.816406 99.863281 L 282.929688 80.585938 L 300.898438 275.507812 L 91.785156 294.785156 Z M 73.816406 99.863281 " clip-rule="nonzero"/></clipPath></defs><g clip-path="url(#d9b6c44346)"><path fill="#a6a6a6" d="M 191.796875 333.460938 C 111.386719 333.460938 45.921875 267.996094 45.921875 187.585938 C 45.921875 107.175781 111.386719 41.710938 191.796875 41.710938 C 272.207031 41.710938 337.671875 107.175781 337.671875 187.585938 C 337.671875 267.996094 272.207031 333.460938 191.796875 333.460938 Z M 191.796875 43.867188 C 112.535156 43.867188 48.078125 108.324219 48.078125 187.585938 C 48.078125 266.847656 112.535156 331.304688 191.796875 331.304688 C 271.058594 331.304688 335.515625 266.847656 335.515625 187.585938 C 335.515625 108.324219 271.058594 43.867188 191.796875 43.867188 Z M 191.796875 43.867188 " fill-opacity="1" fill-rule="nonzero"/></g><g fill="#000000" fill-opacity="1"><g transform="translate(75.423257, 138.73707)"><g><path d="M -0.90625 2.53125 L 16.046875 8.5625 L 12.5 18.546875 L 11.703125 18.25 L 14.953125 9.140625 L 7.8125 6.609375 L 4.6875 15.390625 L 3.890625 15.109375 L 7.015625 6.328125 L -0.40625 3.6875 L -3.65625 12.796875 L -4.453125 12.515625 Z M -0.90625 2.53125 "/></g></g></g><g fill="#000000" fill-opacity="1"><g transform="translate(69.912362, 154.482384)"><g><path d="M -0.75 3.53125 L 16.859375 7.28125 L 16.671875 8.1875 L -0.109375 4.609375 L -2.015625 13.53125 L -2.84375 13.359375 Z M -0.75 3.53125 "/></g></g></g><g fill="#000000" fill-opacity="1"><g transform="translate(66.519832, 170.815653)"><g/></g></g><g fill="#000000" fill-opacity="1"><g transform="translate(65.304566, 187.453188)"><g><path d="M 17.25 11.578125 L 17.25 11.484375 L 6.515625 7.390625 L 16.75 2.15625 L 16.734375 2.0625 L 0.15625 2.96875 L 0.109375 2.09375 L 18.078125 1.125 L 18.15625 2.40625 L 8.609375 7.25 L 8.609375 7.359375 L 18.625 11.125 L 18.6875 12.390625 L 0.71875 13.359375 L 0.671875 12.484375 Z M 17.25 11.578125 "/></g></g></g><g fill="#000000" fill-opacity="1"><g transform="translate(66.287688, 204.106087)"><g><path d="M 0.5 2.640625 L 18.1875 -0.6875 L 20.140625 9.71875 L 19.296875 9.875 L 17.515625 0.375 L 10.0625 1.78125 L 11.78125 10.953125 L 10.953125 11.109375 L 9.234375 1.9375 L 1.5 3.390625 L 3.28125 12.890625 L 2.453125 13.046875 Z M 0.5 2.640625 "/></g></g></g><g fill="#000000" fill-opacity="1"><g transform="translate(69.452122, 220.485066)"><g><path d="M 20.84375 5.78125 L 8.34375 9.890625 C 6.78125 10.398438 5.4375 10.367188 4.3125 9.796875 C 3.1875 9.234375 2.390625 8.25 1.921875 6.84375 C 1.523438 5.632812 1.488281 4.535156 1.8125 3.546875 C 2.144531 2.566406 2.804688 1.789062 3.796875 1.21875 L 4.265625 2.03125 C 3.492188 2.5 2.957031 3.109375 2.65625 3.859375 C 2.363281 4.617188 2.394531 5.535156 2.75 6.609375 C 3.132812 7.785156 3.789062 8.582031 4.71875 9 C 5.644531 9.425781 6.796875 9.414062 8.171875 8.96875 L 19.75 5.15625 L 17.515625 -1.59375 L 18.328125 -1.859375 Z M 20.84375 5.78125 "/></g></g></g><g fill="#000000" fill-opacity="1"><g transform="translate(74.742886, 236.305704)"><g><path d="M 3.078125 7.109375 C 2.222656 5.335938 2.242188 3.664062 3.140625 2.09375 C 4.046875 0.53125 5.953125 -0.945312 8.859375 -2.34375 C 11.742188 -3.738281 14.082031 -4.300781 15.875 -4.03125 C 17.664062 -3.769531 18.988281 -2.753906 19.84375 -0.984375 C 20.695312 0.773438 20.671875 2.441406 19.765625 4.015625 C 18.859375 5.585938 16.960938 7.070312 14.078125 8.46875 C 11.171875 9.863281 8.820312 10.425781 7.03125 10.15625 C 5.25 9.882812 3.929688 8.867188 3.078125 7.109375 Z M 3.859375 6.734375 C 4.585938 8.234375 5.691406 9.078125 7.171875 9.265625 C 8.660156 9.460938 10.515625 9.023438 12.734375 7.953125 L 14.5 7.09375 C 16.707031 6.03125 18.203125 4.851562 18.984375 3.5625 C 19.773438 2.269531 19.804688 0.875 19.078125 -0.625 C 18.359375 -2.125 17.25 -2.96875 15.75 -3.15625 C 14.25 -3.351562 12.394531 -2.921875 10.1875 -1.859375 L 8.421875 -1 C 6.203125 0.0703125 4.707031 1.253906 3.9375 2.546875 C 3.164062 3.835938 3.140625 5.234375 3.859375 6.734375 Z M 3.859375 6.734375 "/></g></g></g><g fill="#000000" fill-opacity="1"><g transform="translate(82.068124, 251.293226)"><g><path d="M 1.984375 3.015625 L 1.484375 2.25 L 16.53125 -7.640625 L 20 -2.359375 C 20.84375 -1.078125 21.101562 0.128906 20.78125 1.265625 C 20.46875 2.398438 19.679688 3.382812 18.421875 4.21875 C 17.191406 5.03125 16 5.363281 14.84375 5.21875 C 13.695312 5.070312 12.710938 4.398438 11.890625 3.203125 L 11.46875 2.578125 L 7.484375 11.375 L 6.890625 10.46875 L 10.875 1.734375 L 8.78125 -1.453125 Z M 12.453125 2.609375 C 12.796875 3.128906 13.171875 3.523438 13.578125 3.796875 C 13.984375 4.078125 14.398438 4.253906 14.828125 4.328125 C 15.265625 4.398438 15.703125 4.378906 16.140625 4.265625 C 16.578125 4.160156 16.992188 3.972656 17.390625 3.703125 L 18.34375 3.078125 C 18.726562 2.828125 19.0625 2.519531 19.34375 2.15625 C 19.632812 1.800781 19.828125 1.410156 19.921875 0.984375 C 20.015625 0.554688 20.015625 0.101562 19.921875 -0.375 C 19.835938 -0.863281 19.625 -1.367188 19.28125 -1.890625 L 16.3125 -6.40625 L 9.484375 -1.90625 Z M 12.453125 2.609375 "/></g></g></g><g fill="#000000" fill-opacity="1"><g transform="translate(91.300599, 265.187316)"><g/></g></g><g fill="#000000" fill-opacity="1"><g transform="translate(102.279967, 277.74671)"><g><path d="M 2.015625 1.78125 L 13.953125 -11.6875 L 21.875 -4.65625 L 21.3125 -4.015625 L 14.078125 -10.4375 L 9.046875 -4.765625 L 16.03125 1.421875 L 15.46875 2.046875 L 8.484375 -4.140625 L 3.265625 1.765625 L 10.5 8.1875 L 9.9375 8.8125 Z M 2.015625 1.78125 "/></g></g></g><g fill="#000000" fill-opacity="1"><g transform="translate(114.815533, 288.753255)"><g><path d="M 8.171875 9.96875 L 5.03125 7.84375 C 4.664062 7.59375 4.457031 7.3125 4.40625 7 C 4.363281 6.6875 4.453125 6.367188 4.671875 6.046875 L 5.859375 4.296875 C 4.429688 3.191406 3.742188 1.757812 3.796875 0 C 3.847656 -1.757812 4.738281 -3.925781 6.46875 -6.5 C 8.257812 -9.15625 10 -10.816406 11.6875 -11.484375 C 13.375 -12.148438 15.023438 -11.9375 16.640625 -10.84375 C 18.265625 -9.75 19.082031 -8.296875 19.09375 -6.484375 C 19.101562 -4.671875 18.210938 -2.4375 16.421875 0.21875 C 14.691406 2.789062 13.015625 4.425781 11.390625 5.125 C 9.765625 5.820312 8.179688 5.722656 6.640625 4.828125 L 5.203125 6.96875 L 8.640625 9.28125 Z M 6.71875 3.875 C 8.101562 4.800781 9.488281 4.972656 10.875 4.390625 C 12.257812 3.804688 13.640625 2.5 15.015625 0.46875 L 16.109375 -1.171875 C 17.484375 -3.203125 18.179688 -4.972656 18.203125 -6.484375 C 18.234375 -7.992188 17.554688 -9.210938 16.171875 -10.140625 C 14.796875 -11.078125 13.410156 -11.25 12.015625 -10.65625 C 10.628906 -10.070312 9.25 -8.765625 7.875 -6.734375 L 6.78125 -5.09375 C 5.40625 -3.0625 4.707031 -1.296875 4.6875 0.203125 C 4.664062 1.710938 5.34375 2.9375 6.71875 3.875 Z M 6.71875 3.875 "/></g></g></g><g fill="#000000" fill-opacity="1"><g transform="translate(128.689626, 298.015824)"><g><path d="M 11.015625 -14.625 L 6.140625 -4.84375 C 5.597656 -3.75 5.195312 -2.800781 4.9375 -2 C 4.675781 -1.195312 4.578125 -0.5 4.640625 0.09375 C 4.710938 0.695312 4.953125 1.222656 5.359375 1.671875 C 5.765625 2.128906 6.367188 2.554688 7.171875 2.953125 C 7.972656 3.359375 8.675781 3.582031 9.28125 3.625 C 9.894531 3.675781 10.457031 3.546875 10.96875 3.234375 C 11.476562 2.929688 11.972656 2.429688 12.453125 1.734375 C 12.929688 1.046875 13.441406 0.15625 13.984375 -0.9375 L 18.859375 -10.71875 L 19.703125 -10.296875 L 14.890625 -0.625 C 14.273438 0.613281 13.679688 1.625 13.109375 2.40625 C 12.535156 3.1875 11.929688 3.75 11.296875 4.09375 C 10.671875 4.445312 10 4.585938 9.28125 4.515625 C 8.5625 4.453125 7.726562 4.1875 6.78125 3.71875 C 5.84375 3.25 5.125 2.75 4.625 2.21875 C 4.132812 1.6875 3.84375 1.0625 3.75 0.34375 C 3.65625 -0.363281 3.75 -1.179688 4.03125 -2.109375 C 4.3125 -3.035156 4.757812 -4.117188 5.375 -5.359375 L 10.1875 -15.03125 Z M 11.015625 -14.625 "/></g></g></g><g fill="#000000" fill-opacity="1"><g transform="translate(143.661236, 305.373515)"><g><path d="M 2.1875 0.75 L 2.4375 0.03125 L 7.125 1.640625 L 12.453125 -13.9375 L 7.765625 -15.546875 L 8.015625 -16.28125 L 18.265625 -12.78125 L 18.015625 -12.046875 L 13.34375 -13.640625 L 8.015625 1.9375 L 12.6875 3.53125 L 12.4375 4.25 Z M 2.1875 0.75 "/></g></g></g><g fill="#000000" fill-opacity="1"><g transform="translate(159.470373, 310.698533)"><g><path d="M 2.640625 0.53125 L 6.171875 -17.125 L 12.375 -15.890625 C 13.875 -15.585938 14.921875 -14.921875 15.515625 -13.890625 C 16.109375 -12.867188 16.253906 -11.617188 15.953125 -10.140625 C 15.660156 -8.648438 15.039062 -7.546875 14.09375 -6.828125 C 13.15625 -6.109375 11.9375 -5.898438 10.4375 -6.203125 L 5.125 -7.265625 L 3.53125 0.703125 Z M 5.296875 -8.09375 L 10.609375 -7.03125 C 11.222656 -6.90625 11.769531 -6.890625 12.25 -6.984375 C 12.726562 -7.078125 13.144531 -7.25 13.5 -7.5 C 13.863281 -7.757812 14.15625 -8.082031 14.375 -8.46875 C 14.601562 -8.863281 14.765625 -9.296875 14.859375 -9.765625 L 15.09375 -10.890625 C 15.175781 -11.335938 15.191406 -11.785156 15.140625 -12.234375 C 15.085938 -12.679688 14.941406 -13.09375 14.703125 -13.46875 C 14.472656 -13.84375 14.15625 -14.164062 13.75 -14.4375 C 13.34375 -14.71875 12.832031 -14.921875 12.21875 -15.046875 L 6.90625 -16.109375 Z M 5.296875 -8.09375 "/></g></g></g><g fill="#000000" fill-opacity="1"><g transform="translate(175.842478, 313.898421)"><g><path d="M 7.703125 0.828125 C 5.742188 0.691406 4.304688 -0.148438 3.390625 -1.703125 C 2.472656 -3.265625 2.117188 -5.65625 2.328125 -8.875 C 2.535156 -12.070312 3.195312 -14.378906 4.3125 -15.796875 C 5.425781 -17.222656 6.960938 -17.867188 8.921875 -17.734375 C 10.878906 -17.609375 12.316406 -16.765625 13.234375 -15.203125 C 14.148438 -13.648438 14.503906 -11.273438 14.296875 -8.078125 C 14.085938 -4.859375 13.425781 -2.535156 12.3125 -1.109375 C 11.195312 0.304688 9.660156 0.953125 7.703125 0.828125 Z M 7.75 -0.03125 C 9.414062 0.0703125 10.695312 -0.472656 11.59375 -1.671875 C 12.5 -2.867188 13.035156 -4.695312 13.203125 -7.15625 L 13.328125 -9.125 C 13.492188 -11.5625 13.207031 -13.441406 12.46875 -14.765625 C 11.738281 -16.085938 10.539062 -16.800781 8.875 -16.90625 C 7.207031 -17.019531 5.921875 -16.46875 5.015625 -15.25 C 4.117188 -14.039062 3.585938 -12.21875 3.421875 -9.78125 L 3.296875 -7.8125 C 3.128906 -5.351562 3.410156 -3.46875 4.140625 -2.15625 C 4.878906 -0.851562 6.082031 -0.144531 7.75 -0.03125 Z M 7.75 -0.03125 "/></g></g></g><g fill="#000000" fill-opacity="1"><g transform="translate(192.493187, 314.917632)"><g/></g></g><g fill="#000000" fill-opacity="1"><g transform="translate(209.133314, 313.738404)"><g><path d="M 13.015625 -2.609375 L 10.015625 -7.953125 L 2.875 -6.515625 L 2.140625 -0.4375 L 1.1875 -0.234375 L 3.4375 -19.046875 L 4.6875 -19.296875 L 13.96875 -2.796875 Z M 4.296875 -18.171875 L 4.171875 -18.140625 L 2.9375 -7.375 L 9.609375 -8.71875 Z M 4.296875 -18.171875 "/></g></g></g><g fill="#000000" fill-opacity="1"><g transform="translate(225.473895, 310.381259)"><g/></g></g><g fill="#000000" fill-opacity="1"><g transform="translate(241.231102, 304.904486)"><g><path d="M 7.140625 -3.203125 C 6.410156 -2.835938 5.726562 -2.578125 5.09375 -2.421875 C 4.46875 -2.273438 3.875 -2.210938 3.3125 -2.234375 C 2.75 -2.253906 2.210938 -2.34375 1.703125 -2.5 C 1.191406 -2.65625 0.691406 -2.859375 0.203125 -3.109375 L 0.609375 -3.921875 C 1.546875 -3.460938 2.492188 -3.195312 3.453125 -3.125 C 4.421875 -3.0625 5.523438 -3.335938 6.765625 -3.953125 C 8.160156 -4.640625 9.085938 -5.488281 9.546875 -6.5 C 10.003906 -7.507812 9.9375 -8.617188 9.34375 -9.828125 C 9.039062 -10.421875 8.691406 -10.878906 8.296875 -11.203125 C 7.910156 -11.523438 7.484375 -11.742188 7.015625 -11.859375 C 6.554688 -11.984375 6.066406 -12.015625 5.546875 -11.953125 C 5.035156 -11.890625 4.515625 -11.769531 3.984375 -11.59375 L 1.96875 -10.984375 C 1.09375 -10.710938 0.320312 -10.582031 -0.34375 -10.59375 C -1.019531 -10.601562 -1.601562 -10.710938 -2.09375 -10.921875 C -2.59375 -11.140625 -3.019531 -11.441406 -3.375 -11.828125 C -3.738281 -12.222656 -4.035156 -12.660156 -4.265625 -13.140625 C -4.960938 -14.546875 -5.019531 -15.816406 -4.4375 -16.953125 C -3.851562 -18.085938 -2.785156 -19.039062 -1.234375 -19.8125 C 0.078125 -20.46875 1.238281 -20.789062 2.25 -20.78125 C 3.257812 -20.769531 4.179688 -20.539062 5.015625 -20.09375 L 4.65625 -19.234375 C 3.832031 -19.679688 2.976562 -19.90625 2.09375 -19.90625 C 1.21875 -19.914062 0.222656 -19.640625 -0.890625 -19.078125 C -2.222656 -18.421875 -3.117188 -17.625 -3.578125 -16.6875 C -4.035156 -15.757812 -3.984375 -14.722656 -3.421875 -13.578125 C -3.140625 -13.015625 -2.8125 -12.578125 -2.4375 -12.265625 C -2.0625 -11.953125 -1.644531 -11.738281 -1.1875 -11.625 C -0.738281 -11.519531 -0.265625 -11.488281 0.234375 -11.53125 C 0.742188 -11.582031 1.28125 -11.703125 1.84375 -11.890625 L 3.84375 -12.5 C 4.726562 -12.769531 5.507812 -12.894531 6.1875 -12.875 C 6.875 -12.851562 7.472656 -12.734375 7.984375 -12.515625 C 8.503906 -12.304688 8.9375 -12 9.28125 -11.59375 C 9.632812 -11.1875 9.929688 -10.75 10.171875 -10.28125 C 10.898438 -8.8125 10.984375 -7.46875 10.421875 -6.25 C 9.859375 -5.03125 8.765625 -4.015625 7.140625 -3.203125 Z M 7.140625 -3.203125 "/></g></g></g><g fill="#000000" fill-opacity="1"><g transform="translate(256.131288, 297.403215)"><g><path d="M -7.296875 -16.796875 L -1.1875 -7.734375 C -0.5 -6.722656 0.125 -5.90625 0.6875 -5.28125 C 1.257812 -4.65625 1.820312 -4.222656 2.375 -3.984375 C 2.925781 -3.753906 3.5 -3.703125 4.09375 -3.828125 C 4.6875 -3.960938 5.351562 -4.28125 6.09375 -4.78125 C 6.84375 -5.28125 7.390625 -5.78125 7.734375 -6.28125 C 8.078125 -6.789062 8.238281 -7.34375 8.21875 -7.9375 C 8.207031 -8.539062 8.019531 -9.21875 7.65625 -9.96875 C 7.289062 -10.726562 6.765625 -11.613281 6.078125 -12.625 L -0.03125 -21.6875 L 0.75 -22.21875 L 6.796875 -13.25 C 7.566406 -12.101562 8.148438 -11.085938 8.546875 -10.203125 C 8.953125 -9.328125 9.148438 -8.53125 9.140625 -7.8125 C 9.140625 -7.09375 8.929688 -6.429688 8.515625 -5.828125 C 8.097656 -5.234375 7.453125 -4.644531 6.578125 -4.0625 C 5.710938 -3.46875 4.925781 -3.09375 4.21875 -2.9375 C 3.507812 -2.78125 2.816406 -2.832031 2.140625 -3.09375 C 1.472656 -3.351562 0.804688 -3.832031 0.140625 -4.53125 C -0.523438 -5.238281 -1.242188 -6.164062 -2.015625 -7.3125 L -8.0625 -16.28125 Z M -7.296875 -16.796875 "/></g></g></g><g fill="#000000" fill-opacity="1"><g transform="translate(269.915685, 288.007705)"><g/></g></g><g fill="#000000" fill-opacity="1"><g transform="translate(282.344866, 276.881164)"><g><path d="M 5.34375 -5.703125 C 4.8125 -5.085938 4.285156 -4.585938 3.765625 -4.203125 C 3.253906 -3.828125 2.734375 -3.539062 2.203125 -3.34375 C 1.671875 -3.144531 1.140625 -3.019531 0.609375 -2.96875 C 0.078125 -2.914062 -0.457031 -2.910156 -1 -2.953125 L -0.953125 -3.859375 C 0.0976562 -3.785156 1.082031 -3.90625 2 -4.21875 C 2.914062 -4.53125 3.820312 -5.207031 4.71875 -6.25 C 5.738281 -7.425781 6.265625 -8.566406 6.296875 -9.671875 C 6.328125 -10.785156 5.832031 -11.78125 4.8125 -12.65625 C 4.3125 -13.09375 3.816406 -13.382812 3.328125 -13.53125 C 2.847656 -13.6875 2.367188 -13.726562 1.890625 -13.65625 C 1.421875 -13.59375 0.960938 -13.429688 0.515625 -13.171875 C 0.0664062 -12.910156 -0.375 -12.597656 -0.8125 -12.234375 L -2.40625 -10.890625 C -3.125 -10.296875 -3.789062 -9.875 -4.40625 -9.625 C -5.03125 -9.375 -5.613281 -9.253906 -6.15625 -9.265625 C -6.695312 -9.273438 -7.203125 -9.390625 -7.671875 -9.609375 C -8.148438 -9.835938 -8.59375 -10.125 -9 -10.46875 C -10.1875 -11.5 -10.726562 -12.648438 -10.625 -13.921875 C -10.519531 -15.203125 -9.898438 -16.5 -8.765625 -17.8125 C -7.804688 -18.914062 -6.859375 -19.65625 -5.921875 -20.03125 C -4.984375 -20.414062 -4.046875 -20.5625 -3.109375 -20.46875 L -3.125 -19.546875 C -4.050781 -19.648438 -4.921875 -19.53125 -5.734375 -19.1875 C -6.546875 -18.84375 -7.363281 -18.195312 -8.1875 -17.25 C -9.15625 -16.132812 -9.671875 -15.054688 -9.734375 -14.015625 C -9.804688 -12.972656 -9.359375 -12.035156 -8.390625 -11.203125 C -7.910156 -10.785156 -7.4375 -10.503906 -6.96875 -10.359375 C -6.5 -10.222656 -6.035156 -10.191406 -5.578125 -10.265625 C -5.128906 -10.347656 -4.675781 -10.507812 -4.21875 -10.75 C -3.769531 -10.988281 -3.328125 -11.300781 -2.890625 -11.6875 L -1.28125 -13 C -0.5625 -13.601562 0.113281 -14.03125 0.75 -14.28125 C 1.394531 -14.53125 1.992188 -14.648438 2.546875 -14.640625 C 3.109375 -14.640625 3.625 -14.519531 4.09375 -14.28125 C 4.570312 -14.039062 5.015625 -13.75 5.421875 -13.40625 C 6.660156 -12.332031 7.253906 -11.125 7.203125 -9.78125 C 7.160156 -8.4375 6.539062 -7.078125 5.34375 -5.703125 Z M 5.34375 -5.703125 "/></g></g></g><g fill="#000000" fill-opacity="1"><g transform="translate(293.203003, 264.216796)"><g><path d="M 1.484375 -2.25 L -13.5625 -12.140625 L -7.75 -20.984375 L -7.03125 -20.515625 L -12.34375 -12.4375 L -6 -8.265625 L -0.875 -16.0625 L -0.171875 -15.609375 L -5.296875 -7.8125 L 1.28125 -3.484375 L 6.59375 -11.5625 L 7.296875 -11.09375 Z M 1.484375 -2.25 "/></g></g></g><g fill="#000000" fill-opacity="1"><g transform="translate(302.301464, 250.234552)"><g><path d="M 1.5625 -3.25 L 1.171875 -2.421875 L -15.03125 -10.25 L -12.28125 -15.953125 C -11.613281 -17.328125 -10.710938 -18.171875 -9.578125 -18.484375 C -8.441406 -18.804688 -7.195312 -18.640625 -5.84375 -17.984375 C -4.507812 -17.335938 -3.609375 -16.484375 -3.140625 -15.421875 C -2.679688 -14.359375 -2.753906 -13.160156 -3.359375 -11.828125 L -3.6875 -11.15625 L 5.921875 -12.25 L 5.453125 -11.28125 L -4.09375 -10.234375 L -5.765625 -6.796875 Z M -4.15625 -12.03125 C -3.882812 -12.59375 -3.734375 -13.113281 -3.703125 -13.59375 C -3.671875 -14.082031 -3.734375 -14.53125 -3.890625 -14.9375 C -4.054688 -15.351562 -4.300781 -15.71875 -4.625 -16.03125 C -4.945312 -16.351562 -5.320312 -16.617188 -5.75 -16.828125 L -6.78125 -17.328125 C -7.195312 -17.523438 -7.628906 -17.648438 -8.078125 -17.703125 C -8.535156 -17.765625 -8.96875 -17.726562 -9.375 -17.59375 C -9.789062 -17.457031 -10.179688 -17.226562 -10.546875 -16.90625 C -10.921875 -16.582031 -11.242188 -16.140625 -11.515625 -15.578125 L -13.875 -10.703125 L -6.515625 -7.15625 Z M -4.15625 -12.03125 "/></g></g></g><g fill="#000000" fill-opacity="1"><g transform="translate(309.482288, 235.177304)"><g><path d="M 2.21875 -6.734375 L -16.6875 -6.84375 L -16.375 -7.828125 L 1.453125 -7.625 L 1.484375 -7.703125 L -12.96875 -18.171875 L -12.65625 -19.09375 L 2.625 -7.953125 Z M 2.21875 -6.734375 "/></g></g></g><g fill="#000000" fill-opacity="1"><g transform="translate(314.620698, 219.306534)"><g><path d="M 0.421875 -2.265625 L -0.328125 -2.40625 L 0.59375 -7.28125 L -15.578125 -10.328125 L -16.5 -5.453125 L -17.265625 -5.59375 L -15.25 -16.234375 L -14.484375 -16.09375 L -15.40625 -11.25 L 0.765625 -8.203125 L 1.6875 -13.046875 L 2.4375 -12.90625 Z M 0.421875 -2.265625 "/></g></g></g><g fill="#000000" fill-opacity="1"><g transform="translate(317.627516, 202.897885)"><g><path d="M 0.765625 -8.34375 C 0.648438 -6.28125 -0.175781 -4.738281 -1.71875 -3.71875 C -3.269531 -2.707031 -5.65625 -2.289062 -8.875 -2.46875 C -12.082031 -2.644531 -14.398438 -3.316406 -15.828125 -4.484375 C -17.265625 -5.660156 -17.925781 -7.28125 -17.8125 -9.34375 C -17.738281 -10.664062 -17.332031 -11.726562 -16.59375 -12.53125 C -15.851562 -13.34375 -14.9375 -13.921875 -13.84375 -14.265625 L -13.546875 -13.40625 C -14.546875 -13.113281 -15.347656 -12.628906 -15.953125 -11.953125 C -16.566406 -11.285156 -16.90625 -10.398438 -16.96875 -9.296875 C -17.0625 -7.523438 -16.503906 -6.15625 -15.296875 -5.1875 C -14.085938 -4.226562 -12.257812 -3.6875 -9.8125 -3.5625 L -7.84375 -3.453125 C -5.394531 -3.316406 -3.515625 -3.660156 -2.203125 -4.484375 C -0.890625 -5.316406 -0.1875 -6.617188 -0.09375 -8.390625 C -0.03125 -9.492188 -0.265625 -10.410156 -0.796875 -11.140625 C -1.335938 -11.878906 -2.085938 -12.445312 -3.046875 -12.84375 L -2.671875 -13.65625 C -1.609375 -13.195312 -0.75 -12.523438 -0.09375 -11.640625 C 0.550781 -10.765625 0.835938 -9.664062 0.765625 -8.34375 Z M 0.765625 -8.34375 "/></g></g></g><g fill="#000000" fill-opacity="1"><g transform="translate(318.450479, 186.236324)"><g><path d="M -0.171875 -2.3125 L -0.9375 -2.25 L -1.328125 -7.1875 L -17.734375 -5.90625 L -17.34375 -0.96875 L -18.125 -0.921875 L -18.96875 -11.703125 L -18.1875 -11.75 L -17.8125 -6.828125 L -1.40625 -8.109375 L -1.78125 -13.03125 L -1.015625 -13.09375 Z M -0.171875 -2.3125 "/></g></g></g><g fill="#000000" fill-opacity="1"><g transform="translate(317.075341, 169.611232)"><g><path d="M -1.296875 -7.625 C -0.890625 -5.707031 -1.3125 -4.09375 -2.5625 -2.78125 C -3.8125 -1.476562 -6.007812 -0.492188 -9.15625 0.171875 C -12.300781 0.835938 -14.707031 0.828125 -16.375 0.140625 C -18.050781 -0.535156 -19.09375 -1.832031 -19.5 -3.75 C -19.90625 -5.664062 -19.484375 -7.28125 -18.234375 -8.59375 C -16.992188 -9.90625 -14.800781 -10.894531 -11.65625 -11.5625 C -8.507812 -12.226562 -6.097656 -12.21875 -4.421875 -11.53125 C -2.742188 -10.84375 -1.703125 -9.539062 -1.296875 -7.625 Z M -2.140625 -7.453125 C -2.484375 -9.085938 -3.359375 -10.171875 -4.765625 -10.703125 C -6.171875 -11.242188 -8.078125 -11.257812 -10.484375 -10.75 L -12.40625 -10.34375 C -14.800781 -9.832031 -16.53125 -9.046875 -17.59375 -7.984375 C -18.664062 -6.921875 -19.03125 -5.570312 -18.6875 -3.9375 C -18.34375 -2.3125 -17.460938 -1.222656 -16.046875 -0.671875 C -14.640625 -0.128906 -12.738281 -0.113281 -10.34375 -0.625 L -8.421875 -1.03125 C -6.015625 -1.539062 -4.28125 -2.332031 -3.21875 -3.40625 C -2.15625 -4.476562 -1.796875 -5.828125 -2.140625 -7.453125 Z M -2.140625 -7.453125 "/></g></g></g><g fill="#000000" fill-opacity="1"><g transform="translate(313.525959, 153.31134)"><g/></g></g><g clip-path="url(#a0c41933c6)"><g clip-path="url(#345f306acb)"><g clip-path="url(#1ec3b46268)"><path fill="#ec6408" d="M 288.226562 161.195312 C 286.28125 154.078125 283.558594 147.242188 280.140625 140.878906 C 263.246094 109.253906 230.585938 89.445312 194.898438 89.1875 C 191.648438 89.164062 188.367188 89.300781 185.140625 89.597656 C 170.136719 90.980469 156.066406 95.648438 143.3125 103.46875 C 114.617188 121.039062 96.710938 152.847656 96.578125 186.453125 C 96.578125 186.472656 96.578125 186.492188 96.578125 186.511719 C 96.578125 186.550781 96.566406 186.582031 96.570312 186.621094 C 96.570312 186.640625 96.578125 186.65625 96.582031 186.671875 C 96.574219 187.125 96.578125 187.582031 96.585938 188.035156 C 95.25 189.453125 91.601562 193.691406 88.996094 200.117188 C 88.996094 200.121094 88.996094 200.121094 88.996094 200.121094 C 85.28125 209.324219 85.359375 219.214844 89.21875 228.722656 C 95.511719 244.183594 111.175781 251.222656 123.390625 254.417969 C 142.757812 274.867188 169.859375 285.972656 197.839844 284.886719 C 199.585938 284.824219 201.363281 284.714844 203.113281 284.550781 C 204.394531 284.433594 205.65625 284.285156 206.914062 284.117188 C 206.9375 284.117188 206.957031 284.113281 206.976562 284.109375 C 214.117188 283.167969 221.101562 281.449219 227.730469 279.007812 C 233.242188 277.003906 238.632812 274.449219 243.75 271.414062 C 276.085938 252.253906 294.742188 215.632812 291.285156 178.117188 C 290.753906 172.34375 289.722656 166.648438 288.226562 161.195312 Z M 276.605469 141.304688 C 274.515625 143.101562 269.136719 147.359375 262.757812 149.425781 C 258.871094 150.6875 255.78125 150.191406 252.199219 149.625 C 248.289062 149.003906 243.863281 148.300781 237.605469 149.691406 C 233.242188 150.65625 229.96875 152.816406 226.804688 154.910156 C 221.179688 158.628906 216.316406 161.839844 206.207031 157.441406 C 200.707031 155.050781 199.53125 149.921875 198.171875 143.980469 C 197.460938 140.867188 196.722656 137.648438 195.316406 134.523438 C 193.964844 131.53125 192.308594 129.296875 190.84375 127.324219 C 188.574219 124.265625 186.613281 121.625 186.179688 116.835938 C 185.351562 107.554688 193.59375 95.445312 195.707031 92.511719 C 229.425781 93.054688 260.246094 111.652344 276.605469 141.304688 Z M 191.65625 92.550781 C 188.363281 97.46875 182.09375 108.136719 182.898438 117.132812 C 183.414062 122.855469 185.738281 125.984375 188.199219 129.300781 C 189.632812 131.226562 191.109375 133.21875 192.3125 135.882812 C 193.585938 138.710938 194.28125 141.765625 194.960938 144.71875 C 196.390625 150.964844 197.867188 157.421875 204.898438 160.476562 C 209.628906 162.535156 213.441406 163.113281 216.691406 162.8125 C 221.511719 162.367188 225.101562 159.996094 228.621094 157.671875 C 231.667969 155.65625 234.546875 153.753906 238.316406 152.921875 C 243.957031 151.664062 247.886719 152.289062 251.683594 152.894531 C 255.519531 153.503906 259.140625 154.078125 263.773438 152.574219 C 270.222656 150.480469 275.589844 146.476562 278.175781 144.3125 C 280.542969 148.972656 282.527344 153.875 284.101562 158.949219 C 279.988281 157.683594 272.863281 156.328125 268.226562 160.125 C 266.394531 161.636719 265.332031 163.742188 264.210938 165.972656 C 262.84375 168.691406 261.292969 171.765625 257.972656 174.484375 C 255.152344 176.785156 250.644531 177.410156 246.28125 178.015625 C 241.507812 178.679688 237 179.304688 234.59375 182.167969 C 232.355469 184.84375 232.242188 188.941406 232.453125 191.578125 L 188.703125 180.679688 C 188.113281 180.535156 187.492188 180.722656 187.085938 181.175781 C 186.679688 181.625 186.554688 182.265625 186.757812 182.839844 L 194.5 204.640625 C 188.691406 208.039062 183.238281 210.792969 177.894531 213.070312 L 176.71875 210.484375 C 174.835938 206.332031 170.261719 204.101562 165.839844 205.15625 L 162.226562 206.019531 C 160.917969 206.339844 159.609375 205.605469 159.1875 204.316406 L 152.636719 184.503906 C 155.25 182.503906 161.894531 176.65625 162.644531 168.394531 C 163.128906 162.945312 161.566406 159.574219 160.058594 156.3125 C 158.828125 153.644531 157.664062 151.125 157.667969 147.40625 C 157.667969 143.855469 159.152344 141.328125 160.71875 138.652344 C 162.71875 135.246094 164.785156 131.722656 163.542969 126.328125 C 162.058594 119.921875 157.515625 117.714844 153.863281 115.941406 C 151.988281 115.03125 150.214844 114.167969 149.070312 112.890625 C 146.679688 110.199219 146.050781 107.238281 145.882812 105.800781 C 157.976562 98.554688 171.277344 94.199219 185.445312 92.890625 C 187.5 92.703125 189.578125 92.605469 191.65625 92.550781 Z M 113.078125 195.136719 L 129.792969 212.910156 C 130.488281 213.648438 131.011719 214.523438 131.34375 215.496094 L 133.847656 222.96875 C 122.121094 223.273438 111.957031 220.789062 104.304688 215.699219 C 102.261719 209.253906 100.894531 202.542969 100.265625 195.730469 C 100.121094 194.148438 100.03125 192.601562 99.964844 191.078125 C 103.34375 194.109375 107.742188 195.457031 113.078125 195.136719 Z M 122.820312 181.679688 C 122.144531 174.335938 127.546875 167.8125 134.867188 167.136719 C 136.890625 166.949219 138.882812 167.21875 140.785156 167.933594 C 145.402344 169.691406 148.671875 173.816406 149.304688 178.703125 C 149.308594 178.71875 149.320312 178.734375 149.320312 178.75 C 149.324219 178.765625 149.320312 178.785156 149.320312 178.800781 C 149.347656 178.945312 149.359375 179.085938 149.371094 179.234375 C 149.503906 180.683594 149.410156 182.117188 149.089844 183.503906 C 147.785156 189.128906 143.0625 193.265625 137.324219 193.792969 C 135.800781 193.933594 134.289062 193.796875 132.820312 193.417969 L 123.175781 183.742188 C 123.007812 183.058594 122.882812 182.371094 122.820312 181.679688 Z M 150.617188 162.671875 L 149.898438 171.21875 C 148.25 168.746094 145.957031 166.734375 143.203125 165.417969 L 143.804688 161.8125 C 144.101562 160.050781 145.671875 158.824219 147.445312 158.953125 C 149.128906 159.074219 150.464844 160.382812 150.617188 162.066406 C 150.636719 162.269531 150.628906 162.476562 150.617188 162.671875 Z M 135.394531 200.675781 C 136.039062 201.324219 137.082031 201.320312 137.726562 200.675781 C 138.371094 200.03125 138.367188 198.984375 137.726562 198.339844 L 136.523438 197.132812 C 136.890625 197.125 137.257812 197.117188 137.628906 197.082031 C 143.152344 196.574219 147.917969 193.371094 150.554688 188.710938 L 156.058594 205.355469 C 157.019531 208.289062 160 209.960938 162.996094 209.242188 L 166.609375 208.375 C 169.503906 207.679688 172.488281 209.136719 173.71875 211.855469 L 174.84375 214.324219 C 171.882812 215.507812 168.914062 216.582031 165.777344 217.542969 L 165.523438 217.625 C 164.117188 217 162.636719 216.640625 161.105469 216.585938 L 151.457031 216.214844 C 150.535156 216.175781 149.78125 216.886719 149.746094 217.800781 C 149.710938 218.714844 150.421875 219.484375 151.332031 219.515625 L 160.984375 219.890625 C 162.273438 219.933594 163.519531 220.261719 164.679688 220.863281 C 166.714844 221.914062 168.238281 223.6875 168.972656 225.863281 L 173.84375 240.242188 C 173.929688 240.492188 173.992188 240.765625 174.015625 241.03125 C 174.144531 242.417969 173.4375 243.765625 172.21875 244.472656 C 171.332031 244.988281 170.300781 245.089844 169.328125 244.765625 C 168.359375 244.445312 167.566406 243.71875 167.164062 242.785156 L 164.460938 236.4375 C 163.144531 233.359375 160.023438 231.5 156.703125 231.804688 L 150.53125 232.375 C 144.921875 232.890625 139.519531 229.386719 137.6875 224.042969 L 134.46875 214.4375 C 133.976562 213.003906 133.210938 211.726562 132.191406 210.644531 L 109.40625 186.414062 C 108.769531 185.734375 108.371094 184.855469 108.285156 183.9375 C 108.171875 182.671875 108.613281 181.449219 109.511719 180.574219 C 111.121094 178.96875 113.746094 178.96875 115.359375 180.578125 Z M 142.851562 107.675781 C 143.289062 109.6875 144.289062 112.480469 146.609375 115.09375 C 148.1875 116.863281 150.34375 117.910156 152.425781 118.921875 C 155.914062 120.613281 159.203125 122.210938 160.332031 127.074219 C 161.273438 131.179688 159.699219 133.867188 157.875 136.980469 C 156.234375 139.78125 154.371094 142.953125 154.367188 147.40625 C 154.367188 151.855469 155.738281 154.828125 157.066406 157.703125 C 158.453125 160.703125 159.761719 163.535156 159.359375 168.101562 C 158.882812 173.359375 155.347656 177.605469 152.710938 180.089844 C 152.703125 179.707031 152.6875 179.320312 152.652344 178.933594 C 152.636719 178.773438 152.613281 178.625 152.59375 178.476562 L 153.902344 162.9375 C 153.929688 162.546875 153.933594 162.15625 153.898438 161.765625 C 153.59375 158.464844 150.980469 155.894531 147.683594 155.65625 C 144.195312 155.398438 141.136719 157.808594 140.554688 161.265625 L 140.054688 164.261719 C 138.261719 163.820312 136.421875 163.675781 134.5625 163.847656 C 126.085938 164.628906 119.679688 171.703125 119.480469 180.042969 L 117.679688 178.238281 C 114.78125 175.347656 110.074219 175.34375 107.195312 178.214844 C 105.59375 179.78125 104.792969 181.980469 105 184.238281 C 105.152344 185.890625 105.867188 187.464844 107.003906 188.679688 L 109.949219 191.8125 C 105.625 191.4375 102.304688 189.511719 99.882812 185.96875 C 100.191406 154.527344 116.550781 124.804688 142.851562 107.675781 Z M 96.761719 192.996094 C 96.824219 194 96.894531 195.007812 96.988281 196.03125 C 97.492188 201.507812 98.449219 206.917969 99.84375 212.191406 C 96.445312 208.976562 93.886719 205.097656 92.300781 200.777344 C 93.695312 197.5 95.382812 194.851562 96.761719 192.996094 Z M 129.375 255.746094 C 139.488281 257.65625 150.558594 258.03125 161.148438 256.761719 C 166.121094 256.152344 171.296875 255.019531 176.554688 253.4375 C 176.277344 255.789062 176.269531 259.304688 177.757812 262.851562 C 179.546875 267.109375 183.65625 269.164062 187.285156 270.972656 C 189.007812 271.828125 190.632812 272.640625 191.898438 273.613281 C 194.320312 275.460938 195.410156 279.328125 195.859375 281.605469 C 171.171875 282.074219 147.320312 272.773438 129.375 255.746094 Z M 199.191406 281.496094 C 198.726562 278.863281 197.390625 273.652344 193.894531 270.980469 C 192.378906 269.820312 190.535156 268.902344 188.75 268.011719 C 185.335938 266.308594 182.109375 264.699219 180.796875 261.570312 C 179.207031 257.789062 179.738281 253.929688 180.070312 252.335938 C 191.550781 248.5 201.335938 243.234375 207.027344 239.839844 L 211.578125 252.65625 C 211.78125 253.230469 212.285156 253.648438 212.882812 253.738281 C 213.019531 253.761719 213.152344 253.761719 213.28125 253.75 C 213.742188 253.707031 214.167969 253.476562 214.449219 253.097656 L 239.121094 220.070312 C 240.222656 222.808594 241.667969 227.464844 241.054688 231.972656 C 240.617188 235.179688 239.078125 237.683594 237.449219 240.335938 C 235.46875 243.550781 233.421875 246.875 233.058594 251.703125 C 232.539062 258.691406 237.835938 266.308594 240.378906 269.527344 C 236.371094 271.792969 232.214844 273.753906 227.960938 275.375 C 225.441406 270.574219 216.484375 255.214844 206.828125 258.839844 C 204.496094 259.714844 202.855469 261.328125 201.960938 263.628906 C 199.828125 269.113281 202.695312 277.246094 204.320312 281.082031 C 202.617188 281.265625 200.910156 281.40625 199.191406 281.496094 Z M 207.722656 280.648438 C 206.046875 276.929688 203.324219 269.207031 205.03125 264.824219 C 205.582031 263.417969 206.546875 262.472656 207.984375 261.929688 C 214.292969 259.554688 221.621094 270.4375 224.835938 276.496094 C 219.324219 278.402344 213.585938 279.800781 207.722656 280.648438 Z M 243.257812 267.839844 C 241.132812 265.203125 235.894531 258.027344 236.34375 251.949219 C 236.648438 247.925781 238.398438 245.082031 240.25 242.070312 C 241.992188 239.242188 243.789062 236.320312 244.320312 232.417969 C 245.203125 225.933594 242.535156 219.429688 241.398438 217.023438 L 254.53125 199.441406 C 254.863281 198.996094 254.949219 198.417969 254.761719 197.894531 C 254.578125 197.375 254.144531 196.980469 253.609375 196.84375 L 235.855469 192.421875 C 235.550781 190.234375 235.417969 186.324219 237.117188 184.296875 C 238.707031 182.40625 242.605469 181.867188 246.734375 181.292969 C 251.320312 180.65625 256.519531 179.9375 260.054688 177.046875 C 263.917969 173.886719 265.710938 170.328125 267.152344 167.464844 C 268.15625 165.472656 269.023438 163.75 270.316406 162.6875 C 274.652344 159.125 282.808594 161.898438 285.242188 162.847656 C 286.574219 167.882812 287.511719 173.113281 288 178.425781 C 291.300781 214.207031 273.765625 249.140625 243.257812 267.839844 Z M 243.257812 267.839844 " fill-opacity="1" fill-rule="nonzero"/></g></g></g><g fill="#000000" fill-opacity="1"><g transform="translate(108.501567, 109.75626)"><g><path d="M -0.984375 -29.4375 C -0.515625 -29.820312 -0.0234375 -29.992188 0.484375 -29.953125 C 0.992188 -29.921875 1.429688 -29.679688 1.796875 -29.234375 C 2.171875 -28.785156 2.320312 -28.304688 2.25 -27.796875 C 2.1875 -27.296875 1.921875 -26.851562 1.453125 -26.46875 L -2.609375 -23.15625 L 8.484375 -9.59375 C 8.847656 -9.144531 8.988281 -8.632812 8.90625 -8.0625 C 8.832031 -7.488281 8.554688 -7.003906 8.078125 -6.609375 C 7.585938 -6.210938 7.0625 -6.035156 6.5 -6.078125 C 5.945312 -6.128906 5.488281 -6.378906 5.125 -6.828125 L -5.96875 -20.390625 L -10.03125 -17.078125 C -10.5 -16.691406 -10.988281 -16.515625 -11.5 -16.546875 C -12.019531 -16.578125 -12.46875 -16.820312 -12.84375 -17.28125 C -13.195312 -17.707031 -13.332031 -18.179688 -13.25 -18.703125 C -13.175781 -19.222656 -12.914062 -19.671875 -12.46875 -20.046875 Z M -0.984375 -29.4375 "/></g></g></g><g fill="#000000" fill-opacity="1"><g transform="translate(126.185188, 95.239674)"><g><path d="M 16.015625 -21.421875 C 17.023438 -19.453125 17.515625 -17.425781 17.484375 -15.34375 C 17.453125 -13.257812 16.914062 -11.347656 15.875 -9.609375 C 14.832031 -7.867188 13.347656 -6.503906 11.421875 -5.515625 C 9.492188 -4.515625 7.519531 -4.097656 5.5 -4.265625 C 3.476562 -4.429688 1.613281 -5.101562 -0.09375 -6.28125 C -1.800781 -7.46875 -3.160156 -9.046875 -4.171875 -11.015625 C -5.179688 -12.972656 -5.675781 -14.992188 -5.65625 -17.078125 C -5.632812 -19.160156 -5.101562 -21.066406 -4.0625 -22.796875 C -3.019531 -24.535156 -1.535156 -25.90625 0.390625 -26.90625 C 2.316406 -27.894531 4.289062 -28.304688 6.3125 -28.140625 C 8.332031 -27.984375 10.203125 -27.3125 11.921875 -26.125 C 13.640625 -24.945312 15.003906 -23.378906 16.015625 -21.421875 Z M 12.140625 -19.421875 C 11.453125 -20.742188 10.5625 -21.8125 9.46875 -22.625 C 8.382812 -23.4375 7.203125 -23.910156 5.921875 -24.046875 C 4.640625 -24.191406 3.40625 -23.960938 2.21875 -23.359375 C 1.007812 -22.734375 0.0976562 -21.863281 -0.515625 -20.75 C -1.140625 -19.644531 -1.429688 -18.410156 -1.390625 -17.046875 C -1.347656 -15.679688 -0.984375 -14.335938 -0.296875 -13.015625 C 0.378906 -11.691406 1.257812 -10.617188 2.34375 -9.796875 C 3.425781 -8.972656 4.597656 -8.488281 5.859375 -8.34375 C 7.128906 -8.207031 8.367188 -8.453125 9.578125 -9.078125 C 10.765625 -9.679688 11.671875 -10.546875 12.296875 -11.671875 C 12.929688 -12.804688 13.234375 -14.050781 13.203125 -15.40625 C 13.171875 -16.757812 12.816406 -18.097656 12.140625 -19.421875 Z M 12.140625 -19.421875 "/></g></g></g><g fill="#000000" fill-opacity="1"><g transform="translate(150.487589, 83.05005)"><g><path d="M 12.578125 -27.5 C 13.140625 -27.65625 13.640625 -27.59375 14.078125 -27.3125 C 14.515625 -27.039062 14.8125 -26.613281 14.96875 -26.03125 L 18.03125 -14.328125 C 18.5 -12.523438 18.535156 -10.832031 18.140625 -9.25 C 17.742188 -7.675781 16.96875 -6.320312 15.8125 -5.1875 C 14.664062 -4.0625 13.210938 -3.269531 11.453125 -2.8125 C 9.710938 -2.351562 8.054688 -2.332031 6.484375 -2.75 C 4.910156 -3.164062 3.566406 -3.960938 2.453125 -5.140625 C 1.335938 -6.328125 0.546875 -7.820312 0.078125 -9.625 L -2.984375 -21.328125 C -3.128906 -21.890625 -3.054688 -22.410156 -2.765625 -22.890625 C -2.472656 -23.367188 -2.03125 -23.6875 -1.4375 -23.84375 C -0.90625 -23.976562 -0.398438 -23.910156 0.078125 -23.640625 C 0.566406 -23.367188 0.882812 -22.953125 1.03125 -22.390625 L 4.09375 -10.6875 C 4.363281 -9.644531 4.828125 -8.773438 5.484375 -8.078125 C 6.148438 -7.390625 6.921875 -6.929688 7.796875 -6.703125 C 8.679688 -6.472656 9.5625 -6.472656 10.4375 -6.703125 C 11.363281 -6.941406 12.175781 -7.382812 12.875 -8.03125 C 13.570312 -8.675781 14.054688 -9.460938 14.328125 -10.390625 C 14.609375 -11.328125 14.613281 -12.316406 14.34375 -13.359375 L 11.28125 -25.0625 C 11.125 -25.644531 11.160156 -26.160156 11.390625 -26.609375 C 11.617188 -27.054688 12.015625 -27.351562 12.578125 -27.5 Z M 12.578125 -27.5 "/></g></g></g><g fill="#000000" fill-opacity="1"><g transform="translate(175.203212, 76.833675)"><g><path d="M 20.703125 -4.203125 C 20.992188 -4.035156 21.226562 -3.8125 21.40625 -3.53125 C 21.59375 -3.25 21.691406 -2.953125 21.703125 -2.640625 C 21.722656 -2.234375 21.609375 -1.859375 21.359375 -1.515625 C 21.035156 -1.097656 20.53125 -0.875 19.84375 -0.84375 C 19.3125 -0.820312 18.816406 -0.921875 18.359375 -1.140625 C 16.710938 -1.984375 15.828125 -3.8125 15.703125 -6.625 C 15.671875 -7.425781 15.378906 -8.046875 14.828125 -8.484375 C 14.285156 -8.929688 13.523438 -9.132812 12.546875 -9.09375 L 6.3125 -8.8125 L 6.59375 -2.34375 C 6.625 -1.738281 6.484375 -1.238281 6.171875 -0.84375 C 5.867188 -0.445312 5.453125 -0.238281 4.921875 -0.21875 C 4.273438 -0.1875 3.703125 -0.351562 3.203125 -0.71875 C 2.703125 -1.09375 2.4375 -1.570312 2.40625 -2.15625 L 1.546875 -21.453125 C 1.523438 -22.035156 1.703125 -22.53125 2.078125 -22.9375 C 2.453125 -23.34375 2.929688 -23.5625 3.515625 -23.59375 L 13.125 -24.015625 C 14.289062 -24.066406 15.398438 -23.800781 16.453125 -23.21875 C 17.503906 -22.644531 18.359375 -21.820312 19.015625 -20.75 C 19.671875 -19.6875 20.03125 -18.476562 20.09375 -17.125 C 20.144531 -16.007812 19.894531 -14.910156 19.34375 -13.828125 C 18.789062 -12.742188 18.046875 -11.867188 17.109375 -11.203125 C 18.554688 -10.285156 19.382812 -9.003906 19.59375 -7.359375 C 19.675781 -7.015625 19.726562 -6.675781 19.75 -6.34375 C 19.851562 -5.644531 19.957031 -5.148438 20.0625 -4.859375 C 20.164062 -4.566406 20.378906 -4.347656 20.703125 -4.203125 Z M 13.46875 -12.578125 C 13.863281 -12.585938 14.242188 -12.789062 14.609375 -13.1875 C 14.972656 -13.59375 15.257812 -14.117188 15.46875 -14.765625 C 15.6875 -15.410156 15.78125 -16.097656 15.75 -16.828125 C 15.726562 -17.453125 15.582031 -18.019531 15.3125 -18.53125 C 15.039062 -19.050781 14.707031 -19.457031 14.3125 -19.75 C 13.914062 -20.039062 13.519531 -20.179688 13.125 -20.171875 L 5.8125 -19.84375 L 6.15625 -12.25 Z M 13.46875 -12.578125 "/></g></g></g><g fill="#000000" fill-opacity="1"><g transform="translate(200.038654, 75.846357)"><g><path d="M 23.9375 -19.625 C 24.457031 -19.53125 24.851562 -19.28125 25.125 -18.875 C 25.394531 -18.46875 25.484375 -18 25.390625 -17.46875 L 22.078125 1.734375 C 21.984375 2.304688 21.710938 2.75 21.265625 3.0625 C 20.816406 3.382812 20.304688 3.5 19.734375 3.40625 C 19.429688 3.351562 19.140625 3.25 18.859375 3.09375 C 18.578125 2.945312 18.382812 2.773438 18.28125 2.578125 L 8.84375 -14.875 L 6.40625 -0.796875 C 6.320312 -0.265625 6.078125 0.144531 5.671875 0.4375 C 5.273438 0.726562 4.800781 0.828125 4.25 0.734375 C 3.726562 0.640625 3.332031 0.390625 3.0625 -0.015625 C 2.789062 -0.421875 2.695312 -0.890625 2.78125 -1.421875 L 6.09375 -20.625 C 6.195312 -21.195312 6.472656 -21.640625 6.921875 -21.953125 C 7.367188 -22.273438 7.878906 -22.390625 8.453125 -22.296875 C 8.773438 -22.234375 9.082031 -22.109375 9.375 -21.921875 C 9.675781 -21.742188 9.882812 -21.53125 10 -21.28125 L 19.375 -3.921875 L 21.8125 -18.09375 C 21.90625 -18.625 22.148438 -19.035156 22.546875 -19.328125 C 22.941406 -19.617188 23.40625 -19.71875 23.9375 -19.625 Z M 23.9375 -19.625 "/></g></g></g><g fill="#000000" fill-opacity="1"><g transform="translate(225.990273, 80.47273)"><g><path d="M 26.703125 -1.546875 C 25.859375 0.484375 24.625 2.15625 23 3.46875 C 21.382812 4.789062 19.578125 5.613281 17.578125 5.9375 C 15.578125 6.257812 13.578125 6.003906 11.578125 5.171875 C 9.578125 4.335938 7.984375 3.097656 6.796875 1.453125 C 5.617188 -0.191406 4.9375 -2.050781 4.75 -4.125 C 4.5625 -6.195312 4.890625 -8.25 5.734375 -10.28125 C 6.585938 -12.320312 7.8125 -14.003906 9.40625 -15.328125 C 11.007812 -16.648438 12.8125 -17.472656 14.8125 -17.796875 C 16.820312 -18.117188 18.828125 -17.863281 20.828125 -17.03125 C 22.828125 -16.195312 24.414062 -14.957031 25.59375 -13.3125 C 26.769531 -11.664062 27.460938 -9.800781 27.671875 -7.71875 C 27.878906 -5.644531 27.554688 -3.585938 26.703125 -1.546875 Z M 22.671875 -3.21875 C 23.242188 -4.59375 23.488281 -5.957031 23.40625 -7.3125 C 23.320312 -8.675781 22.921875 -9.894531 22.203125 -10.96875 C 21.492188 -12.039062 20.523438 -12.832031 19.296875 -13.34375 C 18.046875 -13.863281 16.789062 -14.003906 15.53125 -13.765625 C 14.28125 -13.523438 13.144531 -12.945312 12.125 -12.03125 C 11.113281 -11.125 10.320312 -9.984375 9.75 -8.609375 C 9.175781 -7.234375 8.921875 -5.867188 8.984375 -4.515625 C 9.054688 -3.160156 9.445312 -1.953125 10.15625 -0.890625 C 10.875 0.171875 11.859375 0.960938 13.109375 1.484375 C 14.335938 1.992188 15.582031 2.125 16.84375 1.875 C 18.113281 1.632812 19.257812 1.066406 20.28125 0.171875 C 21.300781 -0.710938 22.097656 -1.84375 22.671875 -3.21875 Z M 22.671875 -3.21875 "/></g></g></g><g fill="#000000" fill-opacity="1"><g transform="translate(250.9303, 90.654668)"><g><path d="M 37.171875 -1.421875 C 37.585938 -1.097656 37.851562 -0.632812 37.96875 -0.03125 C 38.09375 0.570312 37.96875 1.125 37.59375 1.625 C 37.476562 1.78125 37.316406 1.929688 37.109375 2.078125 L 20.1875 13.609375 C 19.84375 13.828125 19.46875 13.925781 19.0625 13.90625 C 18.664062 13.882812 18.300781 13.757812 17.96875 13.53125 C 17.65625 13.300781 17.421875 12.988281 17.265625 12.59375 C 17.117188 12.195312 17.09375 11.773438 17.1875 11.328125 L 19.890625 -0.171875 L 9.5625 5.59375 C 9.15625 5.800781 8.738281 5.882812 8.3125 5.84375 C 7.894531 5.8125 7.53125 5.675781 7.21875 5.4375 C 6.90625 5.164062 6.679688 4.84375 6.546875 4.46875 C 6.410156 4.09375 6.40625 3.710938 6.53125 3.328125 L 12.953125 -16.125 C 13.035156 -16.363281 13.132812 -16.5625 13.25 -16.71875 C 13.625 -17.21875 14.117188 -17.492188 14.734375 -17.546875 C 15.347656 -17.597656 15.878906 -17.457031 16.328125 -17.125 C 16.679688 -16.851562 16.929688 -16.515625 17.078125 -16.109375 C 17.222656 -15.703125 17.234375 -15.300781 17.109375 -14.90625 L 11.984375 0.140625 L 21.71875 -5.546875 C 22.113281 -5.773438 22.515625 -5.878906 22.921875 -5.859375 C 23.328125 -5.847656 23.695312 -5.707031 24.03125 -5.4375 C 24.375 -5.195312 24.601562 -4.890625 24.71875 -4.515625 C 24.832031 -4.140625 24.835938 -3.726562 24.734375 -3.28125 L 21.828125 7.453125 L 34.796875 -1.578125 C 35.148438 -1.816406 35.539062 -1.914062 35.96875 -1.875 C 36.40625 -1.84375 36.804688 -1.691406 37.171875 -1.421875 Z M 37.171875 -1.421875 "/></g></g></g></svg>